<svg width="31" height="31" viewBox="0 0 31 31" fill="none" xmlns="http://www.w3.org/2000/svg">
<path d="M29.3453 14.9755C29.0194 15.8297 28.9282 16.9533 28.3219 17.4815C27.0147 18.6192 25.455 19.477 23.969 20.3986C23.4293 20.7353 22.7985 20.9302 22.073 21.2492C23.7167 22.387 24.4527 22.068 29.7624 18.2081C31.4552 22.1885 30.947 23.6701 26.9551 25.1942C22.3358 26.9594 23.5905 27.0622 21.4106 23.2129C20.4818 21.5718 19.8159 19.7712 19.1185 18.0096C18.7785 17.1447 18.6383 16.2019 18.3965 15.2591C21.5473 15.1953 22.4655 14.4084 22.7354 11.6685C17.8568 12.5794 16.8824 13.9263 17.7937 18.9205H12.6627C13.3076 13.7349 12.7714 12.9764 7.65096 11.5019C7.43367 14.1567 8.73393 15.3654 11.8041 15.2591C11.2994 19.1686 9.27015 22.3835 7.27595 25.5983C7.0902 25.896 6.31916 26.0626 5.91611 25.9457C4.88221 25.6479 3.88336 25.2049 2.90554 24.7405C-0.224193 23.2519 -0.567657 22.3374 0.659002 18.6547C1.89968 19.4734 3.04573 20.4234 4.34599 21.033C5.49905 21.5753 6.7222 22.667 8.09957 21.7525C5.75139 19.8598 3.48733 18.0557 1.27233 16.1913C1.14616 16.0849 1.44757 15.4753 1.5457 15.1067C3.04924 16.0637 4.4266 17.0029 5.87406 17.8111C6.24205 18.0167 6.85188 17.7898 7.34955 17.7615C7.05866 17.3149 6.84837 16.7761 6.45935 16.4429C6.00724 16.0566 5.37638 15.89 4.8717 15.5568C2.41838 13.937 2.26417 13.1076 3.77121 10.6442C4.18477 9.96716 4.41608 9.1732 4.71048 8.42531C5.10652 7.41514 5.41143 6.36242 5.87756 5.38769C7.59138 1.7865 10.276 0.65936 14.0646 1.76169C14.7586 1.96373 15.6207 1.94955 16.3147 1.74043C20.0928 0.599104 22.823 1.69789 24.5578 5.26364C25.6758 7.564 26.7448 9.89627 27.677 12.2746C27.8733 12.7779 27.5684 13.7846 27.1443 14.1638C25.823 15.3441 24.337 16.333 22.4445 17.7437C25.5462 18.0238 26.9516 16.1416 28.5567 14.6884C28.8196 14.7841 29.0824 14.8798 29.3488 14.9755H29.3453ZM10.8438 4.63272C10.7562 4.88792 10.672 5.14312 10.5844 5.40187C12.0669 6.21356 13.5529 7.67034 15.0284 7.66325C16.5986 7.65262 18.1617 6.25609 19.7318 5.46213C19.6512 5.20692 19.5706 4.94818 19.49 4.69298C18.5262 4.93754 17.4327 4.97653 16.6266 5.47631C15.5471 6.14621 14.7901 6.09304 13.7282 5.44795C12.9046 4.94818 11.8146 4.88792 10.8438 4.63272ZM7.72456 8.00706C10.1358 9.19801 12.1756 10.2046 14.4467 11.3282C13.7702 8.74077 10.3216 6.96853 7.72456 8.00706ZM15.9257 11.3495C18.2213 10.155 20.1979 9.12357 22.3183 8.0177C20.1384 6.97916 16.6021 8.74786 15.9257 11.3495Z" fill="white"/>
<path d="M9.77466 28.441C11.5481 27.6399 13.3635 26.8176 15.2736 25.9528C16.9419 26.7042 18.8589 27.5655 20.7515 28.4162C17.5657 31.5459 12.7397 31.5353 9.77466 28.441Z" fill="white"/>
<path d="M23.99 1.42851C24.9713 -0.318916 26.0753 -0.499685 27.6945 1.08824C29.913 3.2681 29.8254 6.21356 27.4807 8.79394C26.3802 6.46876 25.2692 4.12586 23.99 1.42851Z" fill="white"/>
<path d="M6.42081 1.21584C5.03995 3.92736 3.95348 6.06468 2.7899 8.34733C1.30039 7.10676 0.960427 5.24591 1.55273 3.60482C2.02236 2.30399 3.32963 1.22293 4.47568 0.311995C4.74905 0.0922374 5.86706 0.942912 6.42081 1.21584Z" fill="white"/>
<path d="M8.69516 26.3958C9.67648 24.5172 10.6368 22.6847 11.6707 20.7069C12.9674 21.5611 14.5165 22.2133 14.2852 24.0564C14.0995 25.5558 11.18 26.7077 8.69165 26.3958H8.69516Z" fill="white"/>
<path d="M21.7398 26.6582C19.2304 26.6121 16.9944 26.1868 16.1918 24.0424C15.8799 23.2094 17.3519 21.7066 18.2701 20.0371C19.6229 22.6175 20.6078 24.4961 21.7398 26.6582Z" fill="white"/>
</svg>
