<svg width="40" height="50" viewBox="0 0 40 50" fill="none" xmlns="http://www.w3.org/2000/svg">
<path d="M18.8193 0C19.5475 0 20.2757 0 21.0038 0C21.3931 0.0638037 21.7823 0.132816 22.1729 0.191411C28.2538 1.1081 33.171 6.43116 33.4133 12.4782C33.5245 15.2569 33.457 18.0421 33.4596 20.8248C33.4596 21.1164 33.5126 21.2831 33.833 21.3964C37.5334 22.7102 39.9338 26.0241 39.9616 29.9083C39.9881 33.6024 40.0397 37.2978 39.947 40.9894C39.8504 44.8163 37.9664 47.6002 34.4235 49.2083C33.5536 49.6029 32.5646 49.7435 31.6312 50C23.8861 50 16.1409 50 8.39578 50C8.28589 49.9701 8.17732 49.9258 8.06611 49.9115C3.66792 49.3398 0.181939 45.6718 0.0852905 41.3292C-0.00341475 37.3773 -0.0603449 33.4149 0.109122 29.4682C0.271969 25.6843 2.33072 23.024 5.86966 21.5162C6.23243 21.3612 6.36747 21.2128 6.36482 20.8209C6.34629 18.3312 6.34761 15.8416 6.35688 13.3519C6.37939 7.49889 10.1209 2.43756 15.7835 0.654965C16.7632 0.345061 17.8038 0.213547 18.8193 0ZM19.9619 45.4113C23.4532 45.4113 26.9444 45.4126 30.437 45.4113C33.3166 45.41 35.2801 43.4998 35.2867 40.6768C35.296 37.1455 35.2999 33.6142 35.296 30.0815C35.2933 27.3249 33.3153 25.3952 30.5006 25.3952C23.5008 25.3939 16.501 25.3926 9.50128 25.3952C6.69317 25.3965 4.72841 27.3301 4.72444 30.0984C4.71914 33.6298 4.72047 37.1611 4.72444 40.6938C4.72841 43.4907 6.68787 45.41 9.5357 45.4113C13.0111 45.4126 16.4865 45.4113 19.9619 45.4113ZM28.7635 20.7844C28.7781 20.6685 28.7993 20.5735 28.7993 20.4784C28.8006 18.0057 28.847 15.5317 28.7887 13.0602C28.6722 8.19813 24.9161 4.47407 20.0903 4.36339C15.3571 4.25532 11.3032 7.85177 11.0768 12.5029C10.9457 15.197 11.0357 17.9028 11.0305 20.6021C11.0305 20.662 11.0636 20.7206 11.0821 20.7831C16.9803 20.7844 22.864 20.7844 28.7635 20.7844Z" fill="white"/>
<path d="M23.0098 38.5283C23.0111 36.8707 21.6699 35.5491 19.9911 35.553C18.3415 35.5582 17.0082 36.8759 17.003 38.5088C16.9963 40.1599 18.3494 41.4945 20.0216 41.4854C21.6739 41.4789 23.0084 40.1573 23.0098 38.5283Z" fill="white"/>
<path d="M23.0098 38.5284C23.0084 40.1573 21.6752 41.479 20.0216 41.4868C18.3494 41.4946 16.9963 40.1612 17.003 38.5101C17.0096 36.8773 18.3415 35.5582 19.9911 35.5543C21.6699 35.5491 23.0098 36.8695 23.0098 38.5284Z" fill="white"/>
</svg>
