<svg width="180" height="31" viewBox="0 0 180 31" fill="none" xmlns="http://www.w3.org/2000/svg">
<g clip-path="url(#clip0_3_15)">
<path d="M29.3452 14.9754C29.0193 15.8296 28.9281 16.9532 28.3218 17.4814C27.0146 18.6192 25.4549 19.4769 23.9689 20.3985C23.4292 20.7352 22.7984 20.9302 22.0729 21.2492C23.7166 22.3869 24.4526 22.0679 29.7623 18.208C31.4551 22.1884 30.9469 23.67 26.955 25.1942C22.3357 26.9593 23.5904 27.0621 21.4105 23.2128C20.4817 21.5717 19.8158 19.7711 19.1184 18.0095C18.7784 17.1446 18.6382 16.2018 18.3964 15.259C21.5472 15.1952 22.4654 14.4083 22.7353 11.6684C17.8567 12.5794 16.8823 13.9263 17.7936 18.9204H12.6626C13.3075 13.7349 12.7713 12.9763 7.65086 11.5018C7.43357 14.1567 8.73383 15.3653 11.804 15.259C11.2993 19.1685 9.27005 22.3834 7.27585 25.5982C7.0901 25.896 6.31906 26.0626 5.91601 25.9456C4.88211 25.6478 3.88326 25.2048 2.90544 24.7405C-0.224292 23.2518 -0.567757 22.3373 0.658903 18.6546C1.89958 19.4734 3.04563 20.4233 4.34589 21.0329C5.49895 21.5752 6.7221 22.6669 8.09947 21.7525C5.75129 19.8597 3.48723 18.0556 1.27223 16.1912C1.14606 16.0849 1.44747 15.4752 1.5456 15.1066C3.04914 16.0636 4.4265 17.0029 5.87396 17.811C6.24195 18.0166 6.85178 17.7897 7.34945 17.7614C7.05856 17.3148 6.84827 16.776 6.45925 16.4428C6.00714 16.0565 5.37628 15.8899 4.8716 15.5567C2.41828 13.9369 2.26407 13.1075 3.77111 10.6441C4.18467 9.96708 4.41598 9.17312 4.71038 8.42523C5.10642 7.41506 5.41133 6.36235 5.87746 5.38762C7.59128 1.78643 10.2759 0.659284 14.0645 1.76162C14.7585 1.96365 15.6206 1.94947 16.3146 1.74035C20.0927 0.599028 22.8229 1.69782 24.5577 5.26356C25.6757 7.56393 26.7447 9.89619 27.6769 12.2745C27.8732 12.7779 27.5683 13.7845 27.1442 14.1637C25.8229 15.3441 24.3369 16.333 22.4444 17.7437C25.5461 18.0237 26.9515 16.1416 28.5566 14.6883C28.8195 14.784 29.0823 14.8797 29.3487 14.9754H29.3452ZM10.8437 4.63264C10.7561 4.88785 10.6719 5.14305 10.5843 5.40179C12.0668 6.21348 13.5528 7.67026 15.0283 7.66317C16.5985 7.65254 18.1616 6.25601 19.7317 5.46205C19.6511 5.20685 19.5705 4.9481 19.4899 4.6929C18.5261 4.93747 17.4326 4.97646 16.6265 5.47623C15.547 6.14614 14.79 6.09297 13.7281 5.44787C12.9045 4.9481 11.8145 4.88785 10.8437 4.63264ZM7.72446 8.00699C10.1357 9.19793 12.1755 10.2046 14.4466 11.3282C13.7701 8.74069 10.3215 6.96845 7.72446 8.00699ZM15.9256 11.3494C18.2212 10.1549 20.1978 9.1235 22.3182 8.01762C20.1383 6.97909 16.602 8.74778 15.9256 11.3494Z" fill="white"/>
<path d="M116.512 5.30611C117.086 4.9623 117.29 4.7319 117.486 4.73899C121.6 4.88432 125.775 4.67519 129.812 5.31674C135.329 6.19577 138.174 10.0876 137.887 15.298C137.596 20.6005 134.035 24.4357 128.634 24.8858C125.627 25.1375 122.582 24.9319 119.308 24.9319C119.308 21.2208 119.308 17.5735 119.308 13.9263C119.308 12.5652 119.291 11.2077 119.312 9.84659C119.34 7.87231 119.477 5.8555 116.508 5.30257L116.512 5.30611ZM123.493 6.25957V23.5992C126.97 24.1805 130.026 23.6878 131.81 20.5545C133.902 16.8824 133.923 12.9303 131.785 9.27238C129.984 6.18869 126.977 5.57903 123.493 6.25957Z" fill="white"/>
<path d="M67.687 22.7839V18.8778C67.5994 18.807 67.0422 18.4348 66.6006 17.9598C64.5153 15.7091 65.3038 11.7251 68.2864 11.041C71.5563 10.2931 75.0014 10.3108 78.3695 9.99184C78.4186 10.2754 78.4711 10.559 78.5202 10.8425C77.8263 11.0942 77.1323 11.3423 76.3157 11.6365C78.1557 12.8522 79.1721 14.4295 78.4536 16.6342C77.7071 18.9346 75.811 19.5194 73.6661 19.6966C72.1065 19.8242 70.5539 20.0298 68.9978 20.1999C68.9943 20.5189 68.9873 20.8415 68.9838 21.1605C70.1158 21.3235 71.2549 21.4441 72.3729 21.6638C73.9535 21.9722 75.5867 22.1813 77.0762 22.752C78.8006 23.4148 79.6347 24.8467 79.5506 26.7927C79.4665 28.7705 78.4186 30.1954 76.6452 30.4931C74.0797 30.922 71.4091 31.1311 68.8261 30.9078C66.1625 30.6739 64.715 29.1001 64.5223 27.0089C64.2874 24.4746 66.0784 23.4609 67.687 22.7803V22.7839ZM75.4115 26.6686C75.45 24.5171 73.7573 22.9186 71.4476 22.9256C69.874 22.9327 68.7665 24.2974 68.6859 26.3283C68.6018 28.4798 69.86 29.8232 71.9874 29.8551C74.0587 29.8835 75.3764 28.6606 75.4115 26.6686ZM69.6462 14.5607C69.6567 17.3254 70.2911 18.3391 71.756 18.4915C73.4664 18.6723 74.4582 17.5487 74.5493 15.3369C74.6369 13.1819 73.547 11.4203 72.0539 11.5904C71.367 11.6684 70.5609 12.2213 70.1544 12.8026C69.7268 13.4123 69.7093 14.3126 69.6462 14.5571V14.5607Z" fill="white"/>
<path d="M154.804 17.7898C154.815 22.3196 151.938 25.3359 147.571 25.3714C143.099 25.4068 140.088 22.355 140.102 17.7898C140.116 13.3733 143.155 10.2684 147.465 10.2684C151.794 10.2684 154.794 13.345 154.804 17.7898ZM150.935 17.928C150.574 16.3932 150.455 14.8549 149.824 13.5683C149.432 12.7708 148.296 11.9485 147.444 11.8917C146.694 11.8421 145.496 12.6609 145.152 13.4017C143.778 16.3578 143.785 19.4769 145.215 22.4118C145.573 23.1419 146.765 23.8295 147.592 23.8544C148.314 23.8756 149.404 23.0923 149.723 22.3834C150.35 21.0081 150.553 19.4344 150.935 17.9315V17.928Z" fill="white"/>
<path d="M180 17.8819C179.99 22.3515 177.028 25.3714 172.658 25.3749C168.186 25.3749 165.266 22.3302 165.301 17.7047C165.336 13.2918 168.42 10.2116 172.735 10.2719C177.063 10.3321 180.011 13.4229 180 17.8854V17.8819ZM169.174 17.7295C169.521 19.2252 169.643 20.76 170.26 22.0573C170.649 22.8761 171.771 23.8118 172.584 23.8295C173.401 23.8472 174.627 22.9753 174.999 22.1778C176.31 19.3635 176.317 16.3578 175.009 13.5399C174.641 12.7459 173.422 11.8882 172.605 11.9024C171.792 11.9165 170.674 12.8204 170.264 13.6285C169.643 14.8478 169.521 16.3223 169.174 17.733V17.7295Z" fill="white"/>
<path d="M48.1446 24.9673H44.1037V6.37293C40.0557 5.77037 39.2496 6.23824 37.9949 9.72246C36.4002 7.43273 37.4587 4.82754 40.1468 4.74956C44.4822 4.62551 48.8245 4.68576 53.1634 4.7283C53.5735 4.73184 53.98 5.1749 54.3866 5.41238C53.9309 5.6534 53.4893 6.07874 53.0232 6.10355C51.4776 6.19216 49.9215 6.13545 48.1411 6.13545V24.9673H48.1446Z" fill="white"/>
<path d="M94.5299 18.4277H85.6173C85.393 20.5154 85.5648 22.4862 87.3767 23.5353C89.2307 24.6058 91.0146 23.8189 92.4971 22.3444C92.8126 22.0325 93.3418 21.9332 94.1794 21.5504C92.4726 25.1091 88.9013 26.2894 85.5192 24.861C82.0285 23.3865 80.3777 18.9311 81.7831 14.7769C82.9958 11.1935 86.4339 9.50983 90.2891 10.6122C93.7413 11.5975 95.4026 14.5182 94.5299 18.4313V18.4277ZM90.7377 16.8823C90.4924 15.0286 90.7763 13.1394 89.0835 12.0406C88.5683 11.7074 87.1138 11.835 86.9036 12.2107C86.143 13.5789 85.7295 15.1385 85.0916 16.8823H90.7342H90.7377Z" fill="white"/>
<path d="M155.197 30.5994C158.127 29.327 158.383 27.1117 158.397 24.8042C158.418 21.6745 158.4 18.5411 158.397 15.4114C158.393 12.4411 158.365 12.395 156.024 11.119C159.553 9.23688 162.399 10.7646 162.413 14.6174C162.424 18.4915 162.56 22.3904 162.203 26.2362C161.863 29.887 159.557 31.2764 155.197 30.5959V30.5994Z" fill="white"/>
<path d="M102.261 24.9567H98.2274C98.2274 21.7454 98.2414 18.6334 98.2239 15.5213C98.2134 13.6392 98.669 11.4877 95.3885 11.3211C95.5498 11.1226 95.7145 10.9241 95.8757 10.7221C97.2916 10.7221 98.8232 10.3818 100.088 10.8213C101.283 11.2396 102.1 11.1651 103.232 10.7646C104.308 10.3853 105.619 10.435 106.772 10.6157C107.364 10.7114 108.034 11.431 108.286 12.03C108.398 12.2958 107.575 12.9657 107.392 13.1855C106.197 12.8346 105.328 12.3703 104.459 12.3703C103.046 12.3703 102.125 12.909 102.212 14.7238C102.373 18.1017 102.258 21.4937 102.258 24.9567H102.261Z" fill="white"/>
<path d="M55.5712 11.2005C60.0783 9.34321 62.3423 10.7504 62.3493 15.0463C62.3528 18.1654 62.3318 21.2881 62.3143 24.4072C62.3143 24.5313 62.2267 24.6518 62.1285 24.9141H58.3119C58.3119 21.8765 58.2838 18.7857 58.3224 15.6949C58.3469 13.6994 58.5151 11.6755 55.5712 11.197V11.2005Z" fill="white"/>
<path d="M9.77473 28.4409C11.5481 27.6398 13.3636 26.8175 15.2737 25.9527C16.9419 26.7041 18.859 27.5654 20.7516 28.4161C17.5658 31.5458 12.7397 31.5352 9.77473 28.4409Z" fill="white"/>
<path d="M23.9899 1.42842C24.9713 -0.319012 26.0753 -0.49978 27.6944 1.08815C29.9129 3.268 29.8253 6.21346 27.4807 8.79384C26.3802 6.46866 25.2692 4.12576 23.9899 1.42842Z" fill="white"/>
<path d="M6.42071 1.21577C5.03984 3.9273 3.95337 6.06462 2.78979 8.34726C1.30028 7.10669 0.96032 5.24584 1.55262 3.60475C2.02226 2.30393 3.32953 1.22286 4.47558 0.311928C4.74895 0.0921706 5.86696 0.942845 6.42071 1.21577Z" fill="white"/>
<path d="M8.69527 26.3957C9.6766 24.5172 10.6369 22.6847 11.6708 20.7068C12.9675 21.5611 14.5166 22.2132 14.2853 24.0564C14.0996 25.5557 11.1801 26.7076 8.69176 26.3957H8.69527Z" fill="white"/>
<path d="M21.7399 26.658C19.2305 26.612 16.9945 26.1866 16.1919 24.0422C15.88 23.2093 17.352 21.7064 18.2702 20.0369C19.623 22.6173 20.6079 24.4959 21.7399 26.658Z" fill="white"/>
<path d="M60.243 4.55464C60.8213 5.36987 61.6975 6.13193 61.8587 7.02159C61.9533 7.53554 60.972 8.69459 60.3411 8.80801C58.9462 9.05258 57.9929 8.04595 58.056 6.67778C58.0876 5.97952 58.9182 5.3167 59.3878 4.63971C59.6752 4.61135 59.9591 4.58654 60.2465 4.55818L60.243 4.55464Z" fill="white"/>
<path d="M162.953 7.06064C161.66 7.96803 161.015 8.78326 160.31 8.83642C158.915 8.9463 157.945 7.96448 158.141 6.58214C158.232 5.95122 159.403 4.92687 159.907 5.02257C160.805 5.18916 161.569 6.07528 162.949 7.06064H162.953Z" fill="white"/>
</g>
<defs>
<clipPath id="clip0_3_15">
<rect width="180" height="31" fill="white"/>
</clipPath>
</defs>
</svg>
