<svg width="132" height="184" viewBox="0 0 132 184" fill="none" xmlns="http://www.w3.org/2000/svg">
<g opacity="0.9" clip-path="url(#clip0_6_34)">
<path d="M74.4213 104.678L55.4945 38.4316C55.4945 38.4316 50.1347 18.2929 36.6256 20.5324C29.9511 21.6374 25.4795 29.1176 26.3541 37.2696C26.5896 39.4592 27.0383 41.962 27.7843 44.7868C31.5306 58.9032 33.3086 64.5772 33.3086 64.5772C33.3086 64.5772 35.7217 71.808 30.6012 72.0654C26.1817 72.283 15.7693 73.0245 15.7693 73.0245L8.82643 41.6831C8.82643 41.6831 5.55487 22.9373 15.2704 10.5766C19.1284 5.66647 25.0418 1.76463 34.0317 0.446545C65.6302 -4.17097 74.3207 36.5471 74.3207 36.5471L89.2529 94.2491C89.2529 94.2491 91.8385 101.47 88.6949 102.632C85.552 103.807 74.4213 104.678 74.4213 104.678Z" fill="#332456"/>
<path d="M81.6269 108.838L62.8674 40.1434C62.8674 40.1434 57.6514 19.2832 40.7961 20.7841C32.4685 21.5242 26.4177 28.8972 26.9282 37.2662C27.0662 39.514 27.4457 42.0939 28.1701 45.0196C31.813 59.6411 33.6138 65.534 33.6138 65.534C33.6138 65.534 36.0907 73.0522 29.7432 73.0176C24.265 72.983 11.4995 73 11.4995 73L4.95351 40.7521C4.95351 40.7521 2.22134 21.4343 15.0957 9.38571C20.2082 4.59948 27.7906 0.961395 38.9953 0.13833C78.3773 -2.73894 86.2703 39.3135 86.2703 39.3135L100.69 99.0583C100.69 99.0583 103.381 106.577 99.4137 107.579C95.4465 108.596 81.6269 108.838 81.6269 108.838Z" fill="#493B6C"/>
<path d="M33.5 65H13L11.5 73H30C33.6 73 35.5 71.5 33.5 65Z" fill="#22173D"/>
<path d="M102.789 82.4033C107.357 82.4448 112.014 86.6362 113.187 91.7614L129.973 165.118C131.146 170.243 128.393 174.358 123.819 174.317L40.5908 173.549C36.0234 173.508 31.3663 169.316 30.1934 164.198L13.407 90.8415C12.2341 85.7094 14.987 81.5941 19.5544 81.6356L102.789 82.4033Z" fill="#3D2F5A"/>
<path d="M129.972 165.125L113.186 91.7684C112.013 86.6363 107.356 82.4518 102.789 82.4103L19.5606 81.6426C14.9932 81.6011 12.2334 85.7164 13.4132 90.8485L30.1927 164.198C31.3656 169.323 36.0227 173.508 40.5901 173.549L123.818 174.317C128.392 174.365 131.145 170.25 129.972 165.125ZM128.537 171.903C127.433 173.286 125.784 174.054 123.894 174.054L40.597 173.286C36.1538 173.245 31.6071 169.143 30.4687 164.15L13.6754 90.7793C13.0821 88.1856 13.5098 85.7372 14.8414 84.0564C15.9384 82.6731 17.5943 81.9054 19.4847 81.9054L102.782 82.6731C107.225 82.7146 111.772 86.8161 112.917 91.8168L129.703 165.173C130.297 167.774 129.869 170.222 128.537 171.903Z" fill="#3D2F5A"/>
<path d="M102.789 82.4033C107.357 82.4448 112.014 86.6362 113.187 91.7614L129.973 165.118C131.146 170.243 128.393 174.358 123.819 174.317L40.5908 173.549C36.0234 173.508 31.3663 169.316 30.1934 164.198L13.407 90.8415C12.2341 85.7094 14.987 81.5941 19.5544 81.6356L102.789 82.4033Z" fill="#3D2F5A"/>
<path d="M123.825 174.324L40.5969 173.556C36.0295 173.515 31.3724 169.323 30.1995 164.205L13.4063 90.8415C12.9578 88.891 13.082 87.0927 13.6547 85.6126C14.0962 84.4575 14.8138 83.4961 15.7521 82.8114L2.60866 92.4876C0.469831 94.0576 -0.523687 97.0594 0.269748 100.525L17.0561 173.881C18.229 179.006 22.8861 183.191 27.4535 183.232L110.681 184C111.799 184.007 112.806 183.772 113.669 183.336C113.959 183.191 114.235 183.018 114.49 182.831L127.626 173.155C126.605 173.909 125.308 174.338 123.825 174.324Z" fill="#3D2F5A"/>
<path opacity="0.7" d="M123.825 174.324L40.5969 173.556C36.0295 173.515 31.3724 169.323 30.1995 164.205L13.4063 90.8415C12.9578 88.891 13.082 87.0927 13.6547 85.6126C14.0962 84.4575 14.8138 83.4961 15.7521 82.8114L2.60866 92.4876C0.469831 94.0576 -0.523687 97.0594 0.269748 100.525L17.0561 173.881C18.229 179.006 22.8861 183.191 27.4535 183.232L110.681 184C111.799 184.007 112.806 183.772 113.669 183.336C113.959 183.191 114.235 183.018 114.49 182.831L127.626 173.155C126.605 173.909 125.308 174.338 123.825 174.324ZM114.331 182.61C114.083 182.79 113.821 182.956 113.552 183.094C112.717 183.516 111.778 183.73 110.757 183.73L27.4604 182.956C23.0172 182.914 18.4705 178.813 17.3321 173.819L0.538826 100.462C-0.199414 97.2392 0.656116 94.2721 2.77424 92.7089L13.8547 84.5474C13.6823 84.8518 13.5236 85.1768 13.3994 85.5158C12.7853 87.1066 12.7025 88.9671 13.1441 90.9106L29.9235 164.267C31.124 169.503 35.9053 173.791 40.5901 173.833L123.894 174.6C124.418 174.6 124.936 174.545 125.426 174.441L114.331 182.61Z" fill="#3D2F5A"/>
<g opacity="0.7">
<path opacity="0.0351" d="M15.2677 92.7504C14.8883 91.0697 15.799 89.7003 17.2962 89.7003H104.802C106.299 89.7003 107.831 91.0697 108.203 92.7504L125.583 169.856C125.962 171.536 125.052 172.906 123.554 172.906H38.6361C37.1389 172.906 32.6267 169.773 32.2472 168.092L15.2677 92.7504Z" fill="#493B6F"/>
<path opacity="0.0526" d="M15.3166 92.6951C14.9371 91.0144 15.8478 89.6449 17.345 89.6449H104.844C106.341 89.6449 107.872 91.0144 108.245 92.6951L125.625 169.8C126.004 171.481 125.093 172.851 123.596 172.851H38.6367C37.1395 172.851 32.6824 169.752 32.303 168.071L15.3166 92.6951Z" fill="#493B6F"/>
<path opacity="0.0702" d="M15.3634 92.6467C14.984 90.966 15.8947 89.5965 17.3919 89.5965H104.891C106.388 89.5965 107.919 90.966 108.299 92.6467L125.679 169.752C126.058 171.433 125.147 172.802 123.65 172.802H38.6352C37.1381 172.802 32.7362 169.731 32.3567 168.051L15.3634 92.6467Z" fill="#493B6F"/>
<path opacity="0.0877" d="M15.4064 92.5914C15.0269 90.9106 15.9377 89.5412 17.4348 89.5412H104.94C106.438 89.5412 107.969 90.9106 108.342 92.5914L125.721 169.697C126.101 171.377 125.19 172.747 123.693 172.747H38.6368C37.1396 172.747 32.793 169.71 32.4135 168.03L15.4064 92.5914Z" fill="#493B6F"/>
<path opacity="0.1053" d="M15.4533 92.543C15.0738 90.8622 15.9845 89.4928 17.4817 89.4928H104.98C106.478 89.4928 108.009 90.8622 108.382 92.543L125.761 169.648C126.141 171.329 125.23 172.698 123.733 172.698H38.6354C37.1382 172.698 32.8399 169.697 32.4673 168.016L15.4533 92.543Z" fill="#493B6F"/>
<path opacity="0.1228" d="M15.5021 92.4876C15.1226 90.8069 16.0334 89.4374 17.5305 89.4374H105.029C106.526 89.4374 108.058 90.8069 108.431 92.4876L125.81 169.593C126.19 171.274 125.279 172.643 123.782 172.643H38.6359C37.1387 172.643 32.8956 169.669 32.5161 167.988L15.5021 92.4876Z" fill="#493B6F"/>
<path opacity="0.1404" d="M15.5431 92.4392C15.1637 90.7585 16.0744 89.389 17.5716 89.389H105.077C106.574 89.389 108.106 90.7585 108.479 92.4392L125.858 169.544C126.238 171.225 125.327 172.595 123.83 172.595H38.6286C37.1315 172.595 32.9435 169.655 32.564 167.974L15.5431 92.4392Z" fill="#493B6F"/>
<path opacity="0.1579" d="M15.592 92.3839C15.2125 90.7032 16.1232 89.3337 17.6204 89.3337H105.119C106.616 89.3337 108.148 90.7032 108.52 92.3839L125.9 169.489C126.28 171.17 125.369 172.539 123.872 172.539H38.6292C37.132 172.539 32.9992 169.627 32.6198 167.954L15.592 92.3839Z" fill="#493B6F"/>
<path opacity="0.1754" d="M15.6408 92.3354C15.2613 90.6547 16.172 89.2853 17.6692 89.2853H105.168C106.665 89.2853 108.197 90.6547 108.569 92.3354L125.949 169.441C126.328 171.121 125.418 172.491 123.921 172.491H38.6297C37.1325 172.491 33.055 169.614 32.6755 167.933L15.6408 92.3354Z" fill="#493B6F"/>
<path opacity="0.193" d="M15.6818 92.2801C15.3023 90.5994 16.2131 89.2299 17.7102 89.2299H105.216C106.713 89.2299 108.245 90.5994 108.617 92.2801L125.997 169.385C126.376 171.066 125.466 172.436 123.968 172.436H38.6293C37.1321 172.436 33.1098 169.593 32.7303 167.912L15.6818 92.2801Z" fill="#493B6F"/>
<path opacity="0.2105" d="M15.7306 92.2317C15.3512 90.551 16.2619 89.1815 17.7591 89.1815H105.258C106.755 89.1815 108.287 90.551 108.659 92.2317L126.039 169.337C126.418 171.018 125.508 172.387 124.01 172.387H38.6298C37.1327 172.387 33.1655 169.572 32.786 167.898L15.7306 92.2317Z" fill="#493B6F"/>
<path opacity="0.2281" d="M15.7716 92.1764C15.3922 90.4957 16.3029 89.1262 17.8001 89.1262H105.299C106.796 89.1262 108.328 90.4957 108.7 92.1764L126.08 169.282C126.459 170.962 125.549 172.332 124.051 172.332H38.6226C37.1254 172.332 33.2065 169.551 32.8339 167.871L15.7716 92.1764Z" fill="#493B6F"/>
<path opacity="0.2456" d="M15.8205 92.128C15.441 90.4472 16.3517 89.0778 17.8489 89.0778H105.354C106.852 89.0778 108.383 90.4472 108.756 92.128L126.136 169.233C126.515 170.914 125.604 172.283 124.107 172.283H38.6231C37.1259 172.283 33.2622 169.538 32.8828 167.857L15.8205 92.128Z" fill="#493B6F"/>
<path opacity="0.2632" d="M15.8673 92.0795C15.4879 90.3988 16.3986 89.0294 17.8958 89.0294H105.394C106.892 89.0294 108.423 90.3988 108.796 92.0795L126.176 169.185C126.555 170.866 125.644 172.235 124.147 172.235H38.6217C37.1245 172.235 33.316 169.517 32.9365 167.836L15.8673 92.0795Z" fill="#493B6F"/>
<path opacity="0.2807" d="M15.9103 92.0242C15.5308 90.3435 16.4416 88.974 17.9387 88.974H105.437C106.935 88.974 108.466 90.3435 108.839 92.0242L126.218 169.13C126.598 170.81 125.687 172.18 124.19 172.18H38.6233C37.1261 172.18 33.3728 169.496 32.9933 167.815L15.9103 92.0242Z" fill="#493B6F"/>
<path opacity="0.2982" d="M15.9572 91.9758C15.5777 90.2951 16.4884 88.9256 17.9856 88.9256H105.484C106.981 88.9256 108.513 90.2951 108.886 91.9758L126.265 169.081C126.645 170.762 125.734 172.131 124.237 172.131H38.6218C37.1247 172.131 33.4266 169.482 33.0471 167.802L15.9572 91.9758Z" fill="#493B6F"/>
<path opacity="0.3158" d="M16.006 91.9205C15.6265 90.2397 16.5373 88.8703 18.0344 88.8703H105.533C107.03 88.8703 108.562 90.2397 108.935 91.9205L126.314 169.026C126.694 170.706 125.783 172.076 124.286 172.076H38.6224C37.1252 172.076 33.4823 169.455 33.1028 167.774L16.006 91.9205Z" fill="#493B6F"/>
<path opacity="0.3333" d="M16.047 91.8721C15.6676 90.1913 16.5783 88.8219 18.0755 88.8219H105.574C107.071 88.8219 108.603 90.1913 108.976 91.8721L126.355 168.977C126.735 170.658 125.824 172.028 124.327 172.028H38.6151C37.1179 172.028 33.5302 169.441 33.1507 167.76L16.047 91.8721Z" fill="#493B6F"/>
<path opacity="0.3509" d="M16.0959 91.8167C15.7164 90.136 16.6271 88.7665 18.1243 88.7665H105.623C107.12 88.7665 108.652 90.136 109.024 91.8167L126.404 168.922C126.784 170.603 125.873 171.972 124.376 171.972H38.6156C37.1184 171.972 33.579 169.42 33.2065 167.739L16.0959 91.8167Z" fill="#493B6F"/>
<path opacity="0.3684" d="M16.1447 91.7683C15.7652 90.0876 16.6759 88.7181 18.1731 88.7181H105.672C107.169 88.7181 108.701 90.0876 109.073 91.7683L126.453 168.874C126.832 170.554 125.922 171.924 124.424 171.924H38.6161C37.119 171.924 33.6348 169.399 33.2553 167.719L16.1447 91.7683Z" fill="#493B6F"/>
<path opacity="0.386" d="M16.1857 91.713C15.8062 90.0323 16.717 88.6628 18.2141 88.6628H105.713C107.21 88.6628 108.742 90.0323 109.114 91.713L126.494 168.818C126.873 170.499 125.963 171.868 124.465 171.868H38.6158C37.1186 171.868 33.6896 169.378 33.3101 167.698L16.1857 91.713Z" fill="#493B6F"/>
<path opacity="0.4035" d="M16.2345 91.6645C15.8551 89.9838 16.7658 88.6144 18.263 88.6144H105.762C107.259 88.6144 108.79 89.9838 109.163 91.6645L126.543 168.77C126.922 170.451 126.011 171.82 124.514 171.82H38.6163C37.1191 171.82 33.7453 169.358 33.3658 167.684L16.2345 91.6645Z" fill="#493B6F"/>
<path opacity="0.4211" d="M16.2755 91.6092C15.8961 89.9285 16.8068 88.559 18.304 88.559H105.803C107.3 88.559 108.831 89.9285 109.204 91.6092L126.584 168.715C126.963 170.395 126.052 171.765 124.555 171.765H38.6159C37.1187 171.765 33.8001 169.337 33.4206 167.656L16.2755 91.6092Z" fill="#493B6F"/>
<path opacity="0.4386" d="M16.3224 91.5608C15.943 89.8801 16.8537 88.5106 18.3509 88.5106H105.849C107.347 88.5106 108.878 89.8801 109.251 91.5608L126.631 168.666C127.01 170.347 126.099 171.716 124.602 171.716H38.6076C37.1104 171.716 33.847 169.323 33.4675 167.642L16.3224 91.5608Z" fill="#493B6F"/>
<path opacity="0.4561" d="M16.3712 91.5055C15.9918 89.8248 16.9025 88.4553 18.3997 88.4553H105.898C107.396 88.4553 108.927 89.8248 109.3 91.5055L126.679 168.611C127.059 170.291 126.148 171.661 124.651 171.661H38.6081C37.1109 171.661 33.9027 169.296 33.5232 167.622L16.3712 91.5055Z" fill="#493B6F"/>
<path opacity="0.4737" d="M16.4123 91.4571C16.0328 89.7763 16.9435 88.4069 18.4407 88.4069H105.939C107.437 88.4069 108.968 89.7763 109.341 91.4571L126.72 168.562C127.1 170.243 126.189 171.613 124.692 171.613H38.6077C37.1106 171.613 33.9506 169.282 33.5781 167.601L16.4123 91.4571Z" fill="#493B6F"/>
<path opacity="0.4912" d="M16.4611 91.4017C16.0816 89.721 16.9923 88.3515 18.4895 88.3515H105.988C107.485 88.3515 109.017 89.721 109.39 91.4017L126.769 168.507C127.149 170.188 126.238 171.557 124.741 171.557H38.6083C37.1111 171.557 34.0064 169.261 33.6269 167.58L16.4611 91.4017Z" fill="#493B6F"/>
<path opacity="0.5088" d="M16.5099 91.3533C16.1305 89.6726 17.0412 88.3031 18.5384 88.3031H106.037C107.534 88.3031 109.066 89.6726 109.438 91.3533L126.818 168.459C127.198 170.139 126.287 171.509 124.79 171.509H38.6088C37.1116 171.509 34.0621 169.24 33.6826 167.559L16.5099 91.3533Z" fill="#493B6F"/>
<path opacity="0.5263" d="M16.5509 91.298C16.1715 89.6173 17.0822 88.2478 18.5794 88.2478H106.078C107.575 88.2478 109.107 89.6173 109.479 91.298L126.859 168.403C127.239 170.084 126.328 171.453 124.831 171.453H38.6015C37.1044 171.453 34.11 169.219 33.7305 167.539L16.5509 91.298Z" fill="#493B6F"/>
<path opacity="0.5439" d="M16.5998 91.2496C16.2203 89.5688 17.131 88.1994 18.6282 88.1994H106.127C107.624 88.1994 109.156 89.5688 109.528 91.2496L126.908 168.355C127.287 170.036 126.377 171.405 124.879 171.405H38.6021C37.1049 171.405 34.1657 169.206 33.7863 167.525L16.5998 91.2496Z" fill="#493B6F"/>
<path opacity="0.5614" d="M16.6408 91.1942C16.2613 89.5135 17.172 88.144 18.6692 88.144H106.168C107.665 88.144 109.197 89.5135 109.569 91.1942L126.949 168.3C127.328 169.98 126.418 171.35 124.921 171.35H38.6017C37.1045 171.35 34.2205 169.178 33.8411 167.497L16.6408 91.1942Z" fill="#493B6F"/>
<path opacity="0.5789" d="M16.6896 91.1458C16.3101 89.4651 17.2209 88.0956 18.718 88.0956H106.217C107.714 88.0956 109.246 89.4651 109.618 91.1458L126.998 168.251C127.377 169.932 126.467 171.301 124.969 171.301H38.6022C37.105 171.301 34.2763 169.164 33.8968 167.483L16.6896 91.1458Z" fill="#493B6F"/>
<path opacity="0.5965" d="M16.7365 91.0974C16.357 89.4167 17.2677 88.0472 18.7649 88.0472H106.264C107.761 88.0472 109.292 89.4167 109.665 91.0974L127.045 168.203C127.424 169.883 126.513 171.253 125.016 171.253H38.6008C37.1036 171.253 34.33 169.143 33.9506 167.47L16.7365 91.0974Z" fill="#493B6F"/>
<path opacity="0.614" d="M16.7795 91.0421C16.4 89.3614 17.3107 87.9919 18.8079 87.9919H106.307C107.804 87.9919 109.335 89.3614 109.708 91.0421L127.088 168.147C127.467 169.828 126.556 171.198 125.059 171.198H38.6024C37.1052 171.198 34.3799 169.123 34.0073 167.442L16.7795 91.0421Z" fill="#493B6F"/>
<path opacity="0.6316" d="M16.8263 90.9936C16.4469 89.3129 17.3576 87.9435 18.8548 87.9435H106.353C107.851 87.9435 109.382 89.3129 109.755 90.9936L127.135 168.099C127.514 169.78 126.603 171.149 125.106 171.149H38.594C37.0969 171.149 34.4268 169.109 34.0473 167.428L16.8263 90.9936Z" fill="#493B6F"/>
<path opacity="0.6491" d="M16.8752 90.9383C16.4957 89.2576 17.4064 87.8881 18.9036 87.8881H106.402C107.899 87.8881 109.431 89.2576 109.804 90.9383L127.183 168.044C127.563 169.724 126.652 171.094 125.155 171.094H38.5946C37.0974 171.094 34.4825 169.081 34.103 167.407L16.8752 90.9383Z" fill="#493B6F"/>
<path opacity="0.6667" d="M16.9162 90.8899C16.5367 89.2092 17.4474 87.8397 18.9446 87.8397H106.443C107.94 87.8397 109.472 89.2092 109.845 90.8899L127.224 167.995C127.604 169.676 126.693 171.045 125.196 171.045H38.5942C37.097 171.045 34.5373 169.067 34.1579 167.387L16.9162 90.8899Z" fill="#493B6F"/>
<path opacity="0.6842" d="M16.965 90.8346C16.5855 89.1539 17.4963 87.7844 18.9934 87.7844H106.492C107.989 87.7844 109.521 89.1539 109.893 90.8346L127.273 167.94C127.653 169.621 126.742 170.99 125.245 170.99H38.5947C37.0975 170.99 34.5931 169.046 34.2136 167.366L16.965 90.8346Z" fill="#493B6F"/>
<path opacity="0.7018" d="M17.0138 90.7861C16.6344 89.1054 17.5451 87.736 19.0423 87.736H106.541C108.038 87.736 109.57 89.1054 109.942 90.7861L127.322 167.891C127.701 169.572 126.791 170.942 125.294 170.942H38.5953C37.0981 170.942 34.6488 169.026 34.2693 167.345L17.0138 90.7861Z" fill="#493B6F"/>
<path opacity="0.7193" d="M17.0548 90.7308C16.6754 89.0501 17.5861 87.6806 19.0833 87.6806H106.582C108.079 87.6806 109.611 89.0501 109.983 90.7308L127.363 167.836C127.742 169.517 126.832 170.886 125.335 170.886H38.5949C37.0977 170.886 34.7036 169.005 34.3241 167.324L17.0548 90.7308Z" fill="#493B6F"/>
<path opacity="0.7368" d="M17.1037 90.6824C16.7242 89.0017 17.6349 87.6322 19.1321 87.6322H106.631C108.128 87.6322 109.66 89.0017 110.032 90.6824L127.412 167.788C127.791 169.468 126.881 170.838 125.383 170.838H38.5885C37.0913 170.838 34.7455 168.991 34.373 167.31L17.1037 90.6824Z" fill="#493B6F"/>
<path opacity="0.7544" d="M17.1447 90.6271C16.7652 88.9464 17.6759 87.5769 19.1731 87.5769H106.672C108.169 87.5769 109.701 88.9464 110.073 90.6271L127.453 167.732C127.832 169.413 126.922 170.783 125.424 170.783H38.5881C37.091 170.783 34.8003 168.964 34.4209 167.283L17.1447 90.6271Z" fill="#493B6F"/>
<path opacity="0.7719" d="M17.1935 90.5787C16.814 88.8979 17.7248 87.5285 19.2219 87.5285H106.721C108.218 87.5285 109.749 88.8979 110.122 90.5787L127.502 167.684C127.881 169.365 126.97 170.734 125.473 170.734H38.5887C37.0915 170.734 34.8561 168.95 34.4766 167.269L17.1935 90.5787Z" fill="#493B6F"/>
<path opacity="0.7895" d="M17.2404 90.5233C16.8609 88.8426 17.7716 87.4731 19.2688 87.4731H106.767C108.265 87.4731 109.796 88.8426 110.169 90.5233L127.549 167.629C127.928 169.309 127.017 170.679 125.52 170.679H38.5872C37.0901 170.679 34.9098 168.929 34.5304 167.248L17.2404 90.5233Z" fill="#493B6F"/>
<path opacity="0.807" d="M17.2814 90.4749C16.9019 88.7942 17.8127 87.4247 19.3098 87.4247H106.808C108.306 87.4247 109.837 88.7942 110.21 90.4749L127.59 167.58C127.969 169.261 127.058 170.63 125.561 170.63H38.5869C37.0897 170.63 34.9647 168.908 34.5852 167.227L17.2814 90.4749Z" fill="#493B6F"/>
<path opacity="0.8246" d="M17.3302 90.4196C16.9508 88.7389 17.8615 87.3694 19.3587 87.3694H106.857C108.354 87.3694 109.886 88.7389 110.259 90.4196L127.638 167.525C128.018 169.206 127.107 170.575 125.61 170.575H38.5805C37.0833 170.575 35.0135 168.887 34.634 167.207L17.3302 90.4196Z" fill="#493B6F"/>
<path opacity="0.8421" d="M17.3791 90.3712C16.9996 88.6905 17.9103 87.321 19.4075 87.321H106.906C108.403 87.321 109.935 88.6905 110.308 90.3712L127.687 167.476C128.067 169.157 127.156 170.527 125.659 170.527H38.581C37.0838 170.527 35.0692 168.867 34.6897 167.193L17.3791 90.3712Z" fill="#493B6F"/>
<path opacity="0.8596" d="M17.4201 90.3158C17.0406 88.6351 17.9513 87.2656 19.4485 87.2656H106.947C108.444 87.2656 109.976 88.6351 110.349 90.3158L127.728 167.421C128.108 169.102 127.197 170.471 125.7 170.471H38.5806C37.0835 170.471 35.1171 168.846 34.7446 167.165L17.4201 90.3158Z" fill="#493B6F"/>
<path opacity="0.8772" d="M17.4689 90.2674C17.0894 88.5867 18.0002 87.2172 19.4973 87.2172H106.996C108.493 87.2172 110.025 88.5867 110.397 90.2674L127.777 167.373C128.157 169.053 127.246 170.423 125.749 170.423H38.5812C37.084 170.423 35.1729 168.832 34.7934 167.151L17.4689 90.2674Z" fill="#493B6F"/>
<path opacity="0.8947" d="M17.5177 90.2121C17.1383 88.5314 18.049 87.1619 19.5462 87.1619H107.045C108.542 87.1619 110.074 88.5314 110.446 90.2121L127.826 167.317C128.205 168.998 127.295 170.368 125.797 170.368H38.5817C37.0845 170.368 35.2286 168.804 34.8491 167.131L17.5177 90.2121Z" fill="#493B6F"/>
<path opacity="0.9123" d="M17.5587 90.1637C17.1793 88.483 18.09 87.1135 19.5872 87.1135H107.086C108.583 87.1135 110.115 88.483 110.487 90.1637L127.867 167.269C128.246 168.95 127.336 170.319 125.838 170.319H38.5813C37.0841 170.319 35.2834 168.791 34.9039 167.11L17.5587 90.1637Z" fill="#493B6F"/>
<path opacity="0.9298" d="M17.6076 90.1083C17.2281 88.4276 18.1388 87.0582 19.636 87.0582H107.135C108.632 87.0582 110.164 88.4276 110.536 90.1083L127.916 167.214C128.295 168.894 127.385 170.264 125.887 170.264H38.575C37.0778 170.264 35.3322 168.77 34.9528 167.089L17.6076 90.1083Z" fill="#493B6F"/>
<path opacity="0.9474" d="M17.6486 90.0599C17.2691 88.3792 18.1798 87.0097 19.677 87.0097H107.176C108.673 87.0097 110.205 88.3792 110.577 90.0599L127.957 167.165C128.336 168.846 127.426 170.215 125.928 170.215H38.5746C37.0774 170.215 35.387 168.749 35.0076 167.068L17.6486 90.0599Z" fill="#493B6F"/>
<path opacity="0.9649" d="M17.6955 90.0115C17.316 88.3308 18.2267 86.9613 19.7239 86.9613H107.223C108.72 86.9613 110.251 88.3308 110.624 90.0115L128.004 167.117C128.383 168.798 127.472 170.167 125.975 170.167H38.5732C37.076 170.167 35.4408 168.735 35.0613 167.055L17.6955 90.0115Z" fill="#493B6F"/>
<path opacity="0.9825" d="M17.7443 89.9562C17.3648 88.2755 18.2756 86.906 19.7727 86.906H107.271C108.769 86.906 110.3 88.2755 110.673 89.9562L128.052 167.061C128.432 168.742 127.521 170.112 126.024 170.112H38.5737C37.0765 170.112 35.4896 168.715 35.1171 167.034L17.7443 89.9562Z" fill="#493B6F"/>
<path d="M107.319 86.8576C108.816 86.8576 110.348 88.227 110.721 89.9078L128.1 167.013C128.48 168.694 127.569 170.063 126.072 170.063H38.5733C37.0761 170.063 35.5445 168.694 35.165 167.013L17.7853 89.9078C17.4058 88.227 18.3166 86.8576 19.8137 86.8576H107.319Z" fill="#493B6F"/>
</g>
<path d="M129.889 167.241H42.3834C40.8862 167.241 39.3546 165.872 38.982 164.191L21.6023 87.0858C21.347 85.9377 21.6851 84.9417 22.4027 84.423L18.6632 87.1342C17.9456 87.653 17.6006 88.6559 17.8628 89.7971L35.2425 166.902C35.622 168.583 37.1467 169.953 38.6508 169.953H126.149C126.626 169.953 127.046 169.814 127.378 169.572L131.117 166.861C130.779 167.103 130.365 167.241 129.889 167.241Z" fill="#413163"/>
<path d="M111.136 84.0356C112.633 84.0356 114.165 85.4051 114.537 87.0858L131.917 164.191C132.296 165.872 131.386 167.241 129.888 167.241H42.3828C40.8856 167.241 39.354 165.872 38.9745 164.191L21.6017 87.0858C21.2222 85.4051 22.133 84.0356 23.6302 84.0356H111.136Z" fill="#54457D"/>
<path d="M93.7158 149.162H70.2095L70.1612 148.947C67.4014 136.719 69.1056 127.243 71.065 121.378C66.263 119.282 62.3993 114.496 61.185 109.115C60.3019 105.193 60.9642 101.472 63.0134 98.9061C64.683 96.8104 67.153 95.6623 69.968 95.6623C76.4121 95.6623 83.0079 101.645 84.6638 108.997C85.8712 114.371 84.1808 119.165 80.3447 121.316C84.9329 127.167 90.8871 136.622 93.6399 148.83L93.7158 149.162ZM70.651 148.608H93.019C90.2178 136.484 84.2429 127.132 79.7031 121.399L79.4961 121.136L79.7997 120.984C83.6082 119.033 85.3054 114.378 84.1256 109.122C82.525 102.005 76.1706 96.2225 69.968 96.2225C67.3255 96.2225 65.0073 97.3015 63.4411 99.2589C61.5024 101.693 60.8745 105.242 61.7232 108.997C62.9168 114.295 66.7597 118.999 71.5135 120.97L71.7549 121.067L71.6721 121.309C69.7127 127.056 67.9533 136.435 70.651 148.608Z" fill="#251B42"/>
<path d="M69.9685 95.939C63.6349 95.939 59.8195 101.811 61.4546 109.053C62.6965 114.572 66.7465 119.282 71.4036 121.219C69.4373 126.987 67.6365 136.497 70.4239 148.878H93.3645C90.5772 136.497 84.4849 126.987 79.9175 121.219C83.7053 119.282 85.6303 114.565 84.3884 109.053C82.7601 101.811 76.3022 95.939 69.9685 95.939Z" fill="#251B42"/>
<path d="M68.0359 97.1217C74.3696 97.1217 80.8274 102.994 82.4626 110.235C83.7045 115.755 81.7796 120.465 77.9918 122.402C82.4143 127.983 88.2443 137.078 91.149 148.878H93.3637C90.5763 136.497 84.4841 126.987 79.9167 121.219C83.7045 119.282 85.6294 114.565 84.3875 109.053C82.7524 101.811 76.3014 95.939 69.9608 95.939C67.7806 95.939 65.9178 96.6444 64.4551 97.8479C65.5314 97.3845 66.725 97.1217 68.0359 97.1217Z" fill="#150E2B"/>
<path d="M5.45294 27.916C4.46181 37.6503 10.0427 56.621 13 65L11.5003 73C9.50018 64.1667 5.3085 45.5081 5.00012 41.5C4.5226 35.2938 5.10887 30.9108 5.45294 27.916C5.46726 27.7754 5.48294 27.6367 5.50003 27.5C5.48497 27.6356 5.46922 27.7742 5.45294 27.916Z" fill="#2D2049"/>
</g>
<defs>
<clipPath id="clip0_6_34">
<rect width="132" height="184" fill="white"/>
</clipPath>
</defs>
</svg>
