<svg width="149" height="178" viewBox="0 0 149 178" fill="none" xmlns="http://www.w3.org/2000/svg">
<path d="M75.733 0L7.24235 19.1176C-7.44998 78.9907 -1.63535 142.572 41.7019 170.909C95.8896 144.753 126.871 81.9811 136.047 21.9905L75.733 0Z" fill="#372A51"/>
<path d="M141.421 63.203C141.564 62.7329 141.693 62.2628 141.823 61.8058C142.187 60.5521 142.537 59.3116 142.875 58.058C143.03 57.4834 143.186 56.9088 143.342 56.3342C143.472 55.8511 143.601 55.3679 143.731 54.8978C143.848 54.4277 143.952 53.9707 144.069 53.5006C144.38 52.2731 144.679 51.0456 144.964 49.805C145.159 48.9823 145.354 48.1727 145.535 47.35C145.821 46.0964 146.093 44.8297 146.353 43.5761C146.522 42.7926 146.69 42.0222 146.846 41.2387C147.119 39.8675 147.378 38.4964 147.638 37.1252C147.755 36.4593 147.885 35.8063 148.014 35.1404C148.378 33.1163 148.715 31.0922 149.027 29.0682L136.074 21.9774C135.762 24.0015 135.425 26.0255 135.061 28.0496C134.944 28.7156 134.815 29.3685 134.685 30.0345C134.425 31.4056 134.179 32.7768 133.893 34.1479C133.737 34.9314 133.569 35.7019 133.4 36.4854C133.14 37.739 132.868 39.0057 132.582 40.2593C132.4 41.082 132.206 41.8916 132.011 42.7143C131.726 43.9418 131.414 45.1823 131.116 46.4098C130.882 47.3631 130.635 48.3033 130.389 49.2566C130.233 49.8311 130.077 50.4057 129.921 50.9803C129.584 52.2339 129.234 53.4875 128.87 54.7281C128.74 55.1982 128.611 55.6683 128.468 56.1253C127.975 57.8229 127.455 59.5075 126.923 61.192C126.832 61.4793 126.729 61.7796 126.638 62.0669C126.222 63.3858 125.781 64.6917 125.34 66.0106C124.704 67.891 124.042 69.7584 123.367 71.6257C123.289 71.8477 123.211 72.0697 123.133 72.2917C122.368 74.368 121.576 76.4312 120.758 78.4814C120.447 79.278 120.109 80.0615 119.785 80.8581C119.356 81.9027 118.928 82.9474 118.487 83.979C118.136 84.8017 117.773 85.6113 117.41 86.434C116.968 87.4395 116.514 88.4581 116.047 89.4636C115.618 90.4038 115.164 91.344 114.723 92.2712C114.373 93.0024 114.022 93.7468 113.672 94.478C113.191 95.4574 112.698 96.4237 112.205 97.4031C111.855 98.1083 111.504 98.8004 111.141 99.5055C110.427 100.877 109.687 102.248 108.947 103.593C108.83 103.802 108.727 104.011 108.61 104.22C107.74 105.787 106.845 107.341 105.936 108.882C105.715 109.26 105.482 109.626 105.261 110.005C104.586 111.141 103.898 112.264 103.198 113.387C102.886 113.87 102.587 114.366 102.276 114.849C101.575 115.946 100.861 117.043 100.134 118.127C99.9008 118.48 99.6672 118.832 99.4336 119.185C98.4991 120.569 97.5516 121.927 96.5782 123.272C95.1894 125.205 93.7747 127.098 92.321 128.965C91.9316 129.462 91.5423 129.945 91.1529 130.441C90.0367 131.851 88.8945 133.236 87.7264 134.594C87.2073 135.194 86.7011 135.808 86.1819 136.409C85.8964 136.748 85.5979 137.075 85.2993 137.401C84.2999 138.524 83.2876 139.634 82.2622 140.731C82.1324 140.862 82.0156 141.005 81.8858 141.149C80.7437 142.35 79.5885 143.539 78.4074 144.701C78.0959 145.001 77.7844 145.302 77.4859 145.602C76.5255 146.529 75.565 147.456 74.5786 148.357C74.2801 148.632 73.9945 148.906 73.709 149.167C72.489 150.277 71.243 151.374 69.997 152.432C69.6855 152.693 69.361 152.954 69.0495 153.215C68.0631 154.038 67.0507 154.86 66.0384 155.657C65.61 155.996 65.1688 156.336 64.7275 156.676C63.8449 157.355 62.9493 158.021 62.0408 158.687C61.4697 159.104 60.9116 159.522 60.3405 159.927C59.432 160.58 58.4975 161.207 57.576 161.821C57.0438 162.186 56.5117 162.552 55.9666 162.904C55.3306 163.322 54.6687 163.714 54.0327 164.119C52.9814 164.772 51.9301 165.425 50.8658 166.052C50.1649 166.456 49.4641 166.848 48.7632 167.253C47.7378 167.827 46.7125 168.402 45.6612 168.95C44.3633 169.63 43.0654 170.322 41.7285 170.961L54.6817 178.052C55.694 177.569 56.7064 177.06 57.6928 176.551C58.0043 176.394 58.3028 176.211 58.6013 176.054C59.6397 175.506 60.678 174.931 61.6904 174.357C62.3912 173.965 63.1051 173.573 63.793 173.155C64.8573 172.529 65.9086 171.876 66.9599 171.223C67.4531 170.909 67.9593 170.622 68.4395 170.309C68.5952 170.204 68.738 170.1 68.8938 170.008C69.4389 169.656 69.971 169.29 70.5032 168.924C71.4377 168.298 72.3592 167.671 73.2677 167.031C73.8388 166.626 74.4099 166.208 74.968 165.79C75.4742 165.425 75.9803 165.059 76.4865 164.693C76.8759 164.393 77.2653 164.093 77.6417 163.792C78.083 163.453 78.5242 163.113 78.9526 162.774C79.9649 161.977 80.9643 161.155 81.9637 160.332C82.2752 160.071 82.5997 159.81 82.9112 159.548C83.015 159.47 83.1188 159.379 83.2097 159.3C84.3648 158.321 85.494 157.302 86.6232 156.284C86.9217 156.023 87.2073 155.748 87.4928 155.474C88.0509 154.952 88.622 154.443 89.1801 153.907C89.5954 153.515 89.9848 153.111 90.4001 152.719C90.7116 152.418 91.0231 152.118 91.3346 151.805C92.4638 150.682 93.593 149.546 94.6962 148.383C94.7351 148.344 94.7741 148.292 94.813 148.253C94.9428 148.122 95.0726 147.979 95.1894 147.835C96.2147 146.738 97.2271 145.628 98.2265 144.505C98.525 144.179 98.8106 143.839 99.1091 143.513C99.3687 143.225 99.6282 142.938 99.8748 142.638C100.134 142.324 100.394 141.998 100.654 141.697C101.809 140.326 102.951 138.942 104.067 137.545C104.314 137.231 104.586 136.931 104.833 136.618C104.976 136.435 105.105 136.252 105.235 136.082C106.689 134.215 108.117 132.321 109.492 130.389C109.544 130.324 109.596 130.258 109.635 130.193C110.557 128.913 111.452 127.607 112.335 126.302C112.568 125.949 112.802 125.583 113.049 125.231C113.49 124.578 113.931 123.912 114.36 123.259C114.632 122.828 114.905 122.397 115.177 121.966C115.489 121.483 115.8 121 116.099 120.504C116.8 119.381 117.487 118.258 118.162 117.121C118.383 116.743 118.617 116.377 118.837 115.998C118.915 115.881 118.98 115.763 119.058 115.633C119.889 114.209 120.706 112.773 121.511 111.323C121.628 111.115 121.732 110.906 121.848 110.697C122.497 109.508 123.159 108.32 123.782 107.119C123.873 106.949 123.951 106.779 124.042 106.609C124.405 105.917 124.756 105.212 125.119 104.507C125.612 103.541 126.106 102.574 126.586 101.595C126.949 100.864 127.287 100.132 127.637 99.388C127.949 98.722 128.273 98.0691 128.585 97.4031C128.714 97.1289 128.831 96.8547 128.961 96.5804C129.428 95.5749 129.87 94.5694 130.324 93.5509C130.687 92.7282 131.051 91.9186 131.401 91.0959C131.842 90.0643 132.271 89.0196 132.699 87.9749C132.959 87.3481 133.231 86.7344 133.478 86.1076C133.543 85.9378 133.608 85.7811 133.672 85.6113C134.49 83.5612 135.295 81.4979 136.048 79.4216C136.125 79.1996 136.203 78.9776 136.281 78.7556C136.956 76.8883 137.618 75.0209 138.254 73.1405C138.332 72.9316 138.41 72.7096 138.475 72.5006C138.838 71.4037 139.189 70.3068 139.552 69.1968C139.643 68.9096 139.747 68.6092 139.837 68.3219C140.422 66.5982 140.928 64.9006 141.421 63.203Z" fill="#493B6C"/>
<path d="M73.7209 10.1334L13.7575 26.8743C7.80009 54.3885 6.85262 80.5577 11.0319 102.914C15.7952 128.391 26.8404 147.561 43.882 159.966C65.6869 148.423 84.234 129.906 99.0691 104.86C112.087 82.869 121.51 56.9088 126.52 29.3554L73.7209 10.1334Z" fill="#150E2B"/>
<path d="M93.9941 18.7781C81.4044 45.5088 67.1014 71.5604 48.736 94.7392C39.7155 106.113 29.8254 116.677 19.2734 126.537C25.0232 139.895 33.2649 150.642 43.9597 158.595C65.2973 147.13 83.494 128.861 98.0436 104.272C110.776 82.7646 120.147 57.1439 125.17 30.1389L93.9941 18.7781Z" fill="#150E2B"/>
<path d="M85.8561 54.2971L92.5403 64.8614L48.4114 106.348L46.802 105.356L39.6895 66.8724L41.2989 67.8649L52.5388 85.6113L84.2467 53.3047L85.8561 54.2971Z" fill="#1B172B"/>
<path d="M84.2477 53.3047L90.932 63.8559L46.803 105.356L28.8789 77.045L39.6905 66.8724L50.9304 84.6189L84.2477 53.3047Z" fill="#493C6D"/>
</svg>
