<svg width="157" height="188" viewBox="0 0 157 188" fill="none" xmlns="http://www.w3.org/2000/svg">
<path d="M111.747 26.1016C131.535 53.583 125.116 91.7862 97.4477 111.429C69.7636 131.073 31.2787 124.716 11.4906 97.2347C-8.29753 69.7533 -1.89408 31.5501 25.79 11.9068C53.4741 -7.73644 91.959 -1.37986 111.747 26.1016Z" fill="#322553"/>
<path d="M104.798 31.0402C121.841 54.7141 116.337 87.6122 92.4721 104.531C68.6237 121.45 35.483 115.986 18.4392 92.3119C1.39542 68.6221 6.90014 35.724 30.7486 18.805C54.6131 1.886 87.7538 7.36636 104.798 31.0402Z" fill="#463B66"/>
<path d="M97.7043 97.617C73.8559 114.536 40.6991 109.056 23.6553 85.3818C10.7682 67.491 10.7842 44.3269 21.8579 26.7706C5.80913 44.7411 3.77094 71.9358 18.4395 92.2959C35.4833 115.97 68.64 121.45 92.4724 104.515C98.2981 100.389 103.016 95.307 106.595 89.6354C103.995 92.5668 101.026 95.2592 97.7043 97.617Z" fill="#3B3158"/>
<path d="M97.4473 111.429L108.585 126.915" stroke="#3F3166" stroke-width="14" stroke-miterlimit="10"/>
<path d="M108.516 126.249L144.109 174.647" stroke="#322553" stroke-width="25" stroke-miterlimit="10" stroke-linecap="round"/>
<path d="M99.4222 37.5243C96.8223 44.4862 83.7747 46.1112 70.2777 41.1407C56.7807 36.1701 47.9539 26.4998 50.5538 19.5379C53.1537 12.5759 66.2013 10.9509 79.6983 15.9215C93.1953 20.892 102.022 30.5623 99.4222 37.5243Z" fill="#5A4C81"/>
</svg>
